<svg width="259" height="306" viewBox="0 0 259 306" fill="none" xmlns="http://www.w3.org/2000/svg">
<path d="M258.499 71.0617C258.533 70.2339 257.889 69.5353 257.062 69.5013L243.573 68.9462C242.745 68.9121 242.047 69.5555 242.013 70.3832C241.979 71.211 242.622 71.9096 243.45 71.9436L255.44 72.437L254.946 84.4269C254.912 85.2546 255.556 85.9532 256.383 85.9873C257.211 86.0214 257.91 85.378 257.944 84.5503L258.499 71.0617ZM5.01615 305.103L258.016 72.1034L255.984 69.8966L2.98385 302.897L5.01615 305.103Z" fill="black"/>
<path d="M13.085 0.964272C12.513 0.365026 11.5635 0.342945 10.9643 0.914952L1.19899 10.2364C0.599739 10.8084 0.577658 11.7579 1.14967 12.3571C1.72168 12.9564 2.67117 12.9785 3.27041 12.4064L11.9507 4.12073L20.2364 12.801C20.8084 13.4002 21.7579 13.4223 22.3571 12.8503C22.9564 12.2783 22.9785 11.3288 22.4065 10.7296L13.085 0.964272ZM6.49959 303.035L13.4996 2.03487L10.5004 1.96512L3.50041 302.965L6.49959 303.035Z" fill="black"/>
<path d="M5.74902 228.177C7.92832 227.11 10.4658 225.802 12.9499 225.802C15.6593 225.802 17.6891 224.445 20.3392 224.445C22.0057 224.445 23.9821 224.733 25.6173 224.369C27.2778 224 28.2839 223.603 29.9906 224.03C33.6211 224.938 37.4079 225.017 40.8673 226.292C43.7208 227.343 46.9627 227.317 49.1803 229.534C51.5575 231.911 54.1791 234.618 57.3991 235.906C60.1026 236.987 60.9127 240.877 62.5829 242.918C63.2249 243.703 63.8146 244.357 64.5245 245.067C65.1811 245.724 65.2723 246.742 66.1457 247.178" stroke="black" stroke-width="3" stroke-linecap="round"/>
</svg>
