<svg width="579" height="155" viewBox="0 0 579 155" fill="none" xmlns="http://www.w3.org/2000/svg">
<path d="M506.779 71.6022C507.901 70.0138 508.625 67.5207 510.498 66.5842C512.212 65.7276 514.144 64.707 515.93 64.0457C520.873 62.2149 522.834 55.9517 527.205 53.567C530.295 51.8816 535.537 49.9393 537.566 46.8961C539.539 43.9373 541.888 40.1828 545.034 38.4246C549.775 35.7751 551.42 30.6258 555.542 27.267C557.247 25.8782 558.495 23.1712 559.911 21.452C561.35 19.7041 562.749 17.7792 564.456 16.316C567.419 13.7763 568.823 10.3162 571.098 7.28363C572.789 5.02892 574.363 2.63744 576.913 2" stroke="black" stroke-width="3" stroke-linecap="round"/>
<path d="M370.779 150C375.39 149.234 379.976 149.409 384.657 149.409C389.046 149.409 397.374 148.755 400.77 146.586C402.264 145.632 404.77 145.914 406.475 145.831C408.545 145.73 410.238 144.873 412.258 144.682C413.45 144.569 413.905 143.608 415.226 143.467C416.659 143.315 418.378 142.632 419.659 142.056C423.806 140.192 427.103 136.995 431.147 134.965C437.348 131.85 442.36 126.53 448.532 123.114C451.888 121.256 454.647 120.533 457.553 118.058C461.244 114.914 464.083 111.344 467.922 108.308C474.599 103.028 480.422 97.107 487.428 92.4192C491.633 89.6057 494.456 82.7705 499.494 80.8636C502.832 79.6001 505.708 74.7372 506.779 72" stroke="black" stroke-width="3" stroke-linecap="round"/>
<path d="M2.7793 16C4.27107 19.2315 5.38865 21.3576 9.01823 23.1625C10.3058 23.8027 10.7929 25.6974 11.637 26.6786C12.0832 27.1972 13.6439 28.6609 13.8322 29.218C15.3658 33.7554 22.2985 38.8922 26.002 42.3709C30.4702 46.5678 33.1545 53.2184 38.6724 56.4354C45.1299 60.2001 49.8296 65.7865 52.6138 71.9649C53.8768 74.7676 54.5347 75.3667 56.8116 77.5321C58.8761 79.4956 61.9527 81.4313 63.4741 83.7179C65.6345 86.9647 70.3865 93.1246 74.9122 94.5593C80.1531 96.2207 83.8488 100.134 86.7354 103.968C88.78 106.684 90.5223 111.801 94.4378 113.149C100.288 115.164 103.065 119.596 108.841 121.549C115.105 123.667 119.737 128.254 124.862 131.739C129.186 134.679 134.301 137.632 139.343 139.65C145.414 142.081 152.614 143.083 158.137 146.455C166.264 151.417 175.562 151.13 185.249 152.087C202.516 153.793 220.877 153.185 237.779 149.613" stroke="black" stroke-width="3" stroke-linecap="round"/>
<path d="M237.779 150C246.142 150 249.048 145.439 256.464 143.558C264.857 141.43 273.819 136.211 279.559 130.904C282.153 128.506 283.35 124.827 285.942 122.174C293.493 114.448 300.427 103.731 303.157 93.9224C305.055 87.1076 310.511 80.5796 313.68 74.1073C319.232 62.7658 324.648 51.8993 325.479 39.6106C325.961 32.4741 325.58 24.9658 321.494 18.7491C318.261 13.8296 307.235 16.6349 302.848 18.5529C297.992 20.6757 291.885 26.1977 289.463 30.5205C288.699 31.8839 287.038 35.3216 285.826 36.4061C284.507 37.5872 282.148 29.5656 280.797 28.297C279.723 27.2876 277.768 25.5791 276.929 24.3732C273.912 20.0384 264.265 17.3861 259.056 20.1878C250.672 24.6973 248.921 33.3163 248.921 41.1147C248.921 45.4169 251.987 49.8174 253.137 54.0305C254.193 57.8955 257.353 61.8712 260.372 64.8864C268.685 73.1911 278.243 80.7913 286.987 88.8542C290.778 92.35 294.717 95.534 298.36 98.7945C302.114 102.154 305.207 106.225 308.96 109.52C311.542 111.786 314.239 114.96 317.548 116.452C320.361 117.72 320.317 120.107 322.423 121.781C324.079 123.099 324.785 123.766 326.291 124.757C330.873 127.769 335.065 133.496 340.141 135.744C344.984 137.888 349.894 137.84 354.067 141.171C356.536 143.142 360.109 144.948 362.965 146.469C365.459 147.796 368.504 147.541 370.779 148.823" stroke="black" stroke-width="3" stroke-linecap="round"/>
<path d="M2 15.9399C2.60526 19.0419 2.41216 21.9993 3.72067 24.9435C4.13631 25.8786 3.79883 27.0289 4.34091 28.0046C4.65984 28.5787 4.52098 29.3511 4.52098 29.9854C4.52098 30.915 5.24126 31.2905 5.24126 32.1463C5.24126 35.5044 7.23495 38.1668 7.40211 41.5099C7.47666 43.001 8.12239 44.3755 8.12239 45.8316C8.12239 47.0447 8.6652 49.7984 9.20281 50.8736" stroke="black" stroke-width="3" stroke-linecap="round"/>
<path d="M3.08008 15.5796C6.24006 15.5796 10.1897 16.0758 12.9839 17.5804C13.8399 18.0413 15.8696 19.447 16.6854 19.5411C18.0715 19.7011 19.729 21.6209 21.0871 22.2622C23.5044 23.4037 26.1775 23.8801 28.6501 24.7632C30.1932 25.3143 31.83 25.293 33.3319 26.0237C34.5112 26.5974 35.5491 27.3124 36.5731 27.8244" stroke="black" stroke-width="3" stroke-linecap="round"/>
</svg>
